<svg width="66" height="40" viewBox="0 0 66 40" fill="none" xmlns="http://www.w3.org/2000/svg">
<path d="M52.1635 36.7218C45.1448 36.7218 39.4189 30.9953 39.4189 23.9756C39.4189 17.1406 51.0553 1.99291 51.517 1.34637C51.8864 0.884545 52.5329 0.884545 52.9023 1.34637C53.3641 1.99291 65.0004 17.1406 65.0004 23.9756C65.0004 30.9953 59.1822 36.7218 52.1635 36.7218ZM52.1635 3.28601C49.67 6.70349 41.1736 18.6185 41.1736 23.9756C41.1736 30.0716 46.1606 34.9669 52.1635 34.9669C58.2587 34.9669 63.2457 29.9793 63.2457 23.9756C63.2457 18.6185 54.657 6.70349 52.1635 3.28601Z" fill="white" stroke="white"/>
<path d="M51.6064 32.1928C51.237 32.1928 50.8676 31.9157 50.7753 31.5462C50.5906 31.0844 50.8676 30.6226 51.3294 30.4378C54.9311 29.3295 57.6093 26.5586 58.6252 23.0487C58.7175 22.5869 59.2716 22.3098 59.7334 22.4022C60.1951 22.4945 60.4722 23.0487 60.3799 23.5105C59.1793 27.6669 56.0393 30.8997 51.9758 32.1928C51.7911 32.1928 51.6988 32.1928 51.6064 32.1928Z" fill="white" stroke="white"/>
<path d="M26.2121 2.63989H24.4574L24.5497 17.7876L2.84704 17.88L2.75469 2.73226H1L1.09235 35.0597H2.93939L2.84704 19.6349L24.5497 19.5425L24.6421 34.9673H26.3968L26.2121 2.63989Z" fill="#323F47" stroke="#323F47"/>
<path d="M37.5707 38.1993H32.2142L35.0772 35.1513C35.6313 34.5971 36.093 33.9506 36.3701 33.3964C36.7395 32.8422 36.8318 32.1956 36.8318 31.7338C36.8318 30.9025 36.5548 30.1636 35.9083 29.7018C35.3542 29.24 34.523 28.9629 33.5995 28.9629C32.9531 28.9629 32.399 29.0553 31.7525 29.3323C31.1984 29.7018 30.6443 30.0713 30.2749 30.5331L29.9978 30.8102L30.829 31.8262L31.1984 31.4567C31.5678 31.0873 31.9372 30.8102 32.399 30.6254C32.8607 30.4407 33.2301 30.3484 33.6919 30.3484C34.3383 30.3484 34.8001 30.4407 35.0772 30.7178C35.3542 30.9949 35.5389 31.272 35.5389 31.7338C35.5389 32.1956 35.2619 32.9346 34.1536 34.2277L30.2749 38.384V39.0306V39.4924H37.663L37.5707 38.1993Z" fill="#323F47" stroke="#323F47"/>
</svg>
